<svg width="194" height="194" viewBox="0 0 194 194" fill="none" xmlns="http://www.w3.org/2000/svg">
<path d="M130.024 86.1718L140.215 94.1533C129.471 104.181 105.355 123.728 100.903 127.209C95.337 131.562 68.437 152.229 65.2799 154.549C62.1229 156.869 40.7469 171.481 38.1735 173.086C36.1148 174.37 26.5671 180.132 22.0506 182.853C18.8276 184.683 11.0481 189.023 5.96838 191.132C4.27516 191.834 2.48209 192.597 0.623775 193.189C0.878146 191.619 2.58671 186.174 4.57479 180.499C6.56287 174.824 10.051 169.711 13.3108 164.616C15.9162 160.545 24.5504 151.411 28.3785 147.646L117.047 61.7112L116.627 61.2591L179.401 0.514244C180.031 0.557873 181.542 0.720709 182.542 1.02298C184.257 1.54113 187.308 3.00658 188.808 4.50658C190.243 5.94238 191.501 8.98841 192.2 10.8056C192.76 12.2593 192.544 13.8235 192.366 14.4238L129.913 75.0452L129.198 74.4616C128.787 74.9881 128.072 75.9998 127.39 77.7352C126.708 79.4706 126.991 81.1619 127.185 81.9869C127.482 83.7137 129.168 85.4375 130.024 86.1718Z" fill="white" stroke="white"/>
</svg>
